<mxfile host="app.diagrams.net" modified="2024-02-24T07:59:33.382Z" agent="Mozilla/5.0 (Windows NT 10.0; Win64; x64) AppleWebKit/537.36 (KHTML, like Gecko) Chrome/121.0.0.0 Safari/537.36" etag="0YzfMXZY1PbvT1v95mY0" version="23.1.6" type="github">
  <diagram name="페이지-1" id="TgRxORKK_so-ipqKto9W">
    <mxGraphModel dx="1050" dy="530" grid="1" gridSize="10" guides="1" tooltips="1" connect="1" arrows="1" fold="1" page="1" pageScale="1" pageWidth="827" pageHeight="1169" math="0" shadow="0">
      <root>
        <mxCell id="0" />
        <mxCell id="1" parent="0" />
        <mxCell id="_2_auk2qE2fRlxZCheI2-1" value="고객" style="shape=umlActor;verticalLabelPosition=bottom;verticalAlign=top;html=1;outlineConnect=0;" vertex="1" parent="1">
          <mxGeometry x="40" y="320" width="30" height="60" as="geometry" />
        </mxCell>
        <mxCell id="_2_auk2qE2fRlxZCheI2-37" value="" style="edgeStyle=orthogonalEdgeStyle;rounded=0;orthogonalLoop=1;jettySize=auto;html=1;" edge="1" parent="1" source="_2_auk2qE2fRlxZCheI2-2" target="_2_auk2qE2fRlxZCheI2-3">
          <mxGeometry relative="1" as="geometry" />
        </mxCell>
        <mxCell id="_2_auk2qE2fRlxZCheI2-2" value="회원가입" style="ellipse;whiteSpace=wrap;html=1;" vertex="1" parent="1">
          <mxGeometry x="160" y="30" width="120" height="50" as="geometry" />
        </mxCell>
        <mxCell id="_2_auk2qE2fRlxZCheI2-3" value="로그인/로그아웃" style="ellipse;whiteSpace=wrap;html=1;" vertex="1" parent="1">
          <mxGeometry x="160" y="100" width="120" height="50" as="geometry" />
        </mxCell>
        <mxCell id="_2_auk2qE2fRlxZCheI2-4" value="" style="endArrow=classic;html=1;rounded=0;exitX=1;exitY=0.3333333333333333;exitDx=0;exitDy=0;exitPerimeter=0;entryX=0;entryY=0.5;entryDx=0;entryDy=0;" edge="1" parent="1" source="_2_auk2qE2fRlxZCheI2-1" target="_2_auk2qE2fRlxZCheI2-2">
          <mxGeometry width="50" height="50" relative="1" as="geometry">
            <mxPoint x="390" y="300" as="sourcePoint" />
            <mxPoint x="440" y="250" as="targetPoint" />
          </mxGeometry>
        </mxCell>
        <mxCell id="_2_auk2qE2fRlxZCheI2-5" value="" style="endArrow=classic;html=1;rounded=0;entryX=0;entryY=1;entryDx=0;entryDy=0;" edge="1" parent="1" target="_2_auk2qE2fRlxZCheI2-3">
          <mxGeometry width="50" height="50" relative="1" as="geometry">
            <mxPoint x="70" y="340" as="sourcePoint" />
            <mxPoint x="440" y="250" as="targetPoint" />
          </mxGeometry>
        </mxCell>
        <mxCell id="_2_auk2qE2fRlxZCheI2-6" value="회원정보 조회" style="ellipse;whiteSpace=wrap;html=1;" vertex="1" parent="1">
          <mxGeometry x="354" y="170" width="120" height="50" as="geometry" />
        </mxCell>
        <mxCell id="_2_auk2qE2fRlxZCheI2-7" value="회원 탈퇴" style="ellipse;whiteSpace=wrap;html=1;" vertex="1" parent="1">
          <mxGeometry x="354" y="240" width="120" height="50" as="geometry" />
        </mxCell>
        <mxCell id="_2_auk2qE2fRlxZCheI2-8" value="" style="endArrow=classic;html=1;rounded=0;exitX=1;exitY=0.5;exitDx=0;exitDy=0;" edge="1" parent="1" source="_2_auk2qE2fRlxZCheI2-3" target="_2_auk2qE2fRlxZCheI2-6">
          <mxGeometry width="50" height="50" relative="1" as="geometry">
            <mxPoint x="70" y="340" as="sourcePoint" />
            <mxPoint x="440" y="150" as="targetPoint" />
          </mxGeometry>
        </mxCell>
        <mxCell id="_2_auk2qE2fRlxZCheI2-9" value="" style="endArrow=classic;html=1;rounded=0;entryX=0;entryY=0.5;entryDx=0;entryDy=0;exitX=1;exitY=0.5;exitDx=0;exitDy=0;" edge="1" parent="1" source="_2_auk2qE2fRlxZCheI2-3" target="_2_auk2qE2fRlxZCheI2-7">
          <mxGeometry width="50" height="50" relative="1" as="geometry">
            <mxPoint x="70" y="340" as="sourcePoint" />
            <mxPoint x="440" y="150" as="targetPoint" />
            <Array as="points" />
          </mxGeometry>
        </mxCell>
        <mxCell id="_2_auk2qE2fRlxZCheI2-10" value="" style="endArrow=classic;html=1;rounded=0;exitX=1;exitY=0.5;exitDx=0;exitDy=0;" edge="1" parent="1" source="_2_auk2qE2fRlxZCheI2-3">
          <mxGeometry width="50" height="50" relative="1" as="geometry">
            <mxPoint x="390" y="300" as="sourcePoint" />
            <mxPoint x="360" y="125" as="targetPoint" />
          </mxGeometry>
        </mxCell>
        <mxCell id="_2_auk2qE2fRlxZCheI2-11" value="고객센터" style="ellipse;whiteSpace=wrap;html=1;" vertex="1" parent="1">
          <mxGeometry x="354" y="100" width="120" height="50" as="geometry" />
        </mxCell>
        <mxCell id="_2_auk2qE2fRlxZCheI2-12" value="공지사항 확인" style="ellipse;whiteSpace=wrap;html=1;" vertex="1" parent="1">
          <mxGeometry x="520" y="30" width="120" height="50" as="geometry" />
        </mxCell>
        <mxCell id="_2_auk2qE2fRlxZCheI2-13" value="문의 글 등록" style="ellipse;whiteSpace=wrap;html=1;" vertex="1" parent="1">
          <mxGeometry x="520" y="160" width="120" height="50" as="geometry" />
        </mxCell>
        <mxCell id="_2_auk2qE2fRlxZCheI2-14" value="문의 글 수정/삭제" style="ellipse;whiteSpace=wrap;html=1;" vertex="1" parent="1">
          <mxGeometry x="670" y="120" width="120" height="50" as="geometry" />
        </mxCell>
        <mxCell id="_2_auk2qE2fRlxZCheI2-15" value="문의 글 답변 확인" style="ellipse;whiteSpace=wrap;html=1;" vertex="1" parent="1">
          <mxGeometry x="670" y="200" width="120" height="50" as="geometry" />
        </mxCell>
        <mxCell id="_2_auk2qE2fRlxZCheI2-17" value="관리자" style="shape=umlActor;verticalLabelPosition=bottom;verticalAlign=top;html=1;outlineConnect=0;" vertex="1" parent="1">
          <mxGeometry x="770" y="340" width="30" height="60" as="geometry" />
        </mxCell>
        <mxCell id="_2_auk2qE2fRlxZCheI2-18" value="자주 묻는 질문 확인" style="ellipse;whiteSpace=wrap;html=1;" vertex="1" parent="1">
          <mxGeometry x="520" y="90" width="120" height="50" as="geometry" />
        </mxCell>
        <mxCell id="_2_auk2qE2fRlxZCheI2-19" value="공지사항 등록/ 삭제" style="ellipse;whiteSpace=wrap;html=1;" vertex="1" parent="1">
          <mxGeometry x="520" y="290" width="120" height="50" as="geometry" />
        </mxCell>
        <mxCell id="_2_auk2qE2fRlxZCheI2-21" value="문의 글 답변/삭제" style="ellipse;whiteSpace=wrap;html=1;" vertex="1" parent="1">
          <mxGeometry x="520" y="400" width="120" height="50" as="geometry" />
        </mxCell>
        <mxCell id="_2_auk2qE2fRlxZCheI2-22" value="자주 묻는 질문 등록" style="ellipse;whiteSpace=wrap;html=1;" vertex="1" parent="1">
          <mxGeometry x="520" y="460" width="120" height="50" as="geometry" />
        </mxCell>
        <mxCell id="_2_auk2qE2fRlxZCheI2-23" value="" style="endArrow=classic;html=1;rounded=0;exitX=1;exitY=0.5;exitDx=0;exitDy=0;entryX=0.037;entryY=0.704;entryDx=0;entryDy=0;entryPerimeter=0;" edge="1" parent="1" source="_2_auk2qE2fRlxZCheI2-11" target="_2_auk2qE2fRlxZCheI2-12">
          <mxGeometry width="50" height="50" relative="1" as="geometry">
            <mxPoint x="390" y="300" as="sourcePoint" />
            <mxPoint x="440" y="250" as="targetPoint" />
          </mxGeometry>
        </mxCell>
        <mxCell id="_2_auk2qE2fRlxZCheI2-24" value="" style="endArrow=classic;html=1;rounded=0;exitX=1;exitY=0.5;exitDx=0;exitDy=0;entryX=0;entryY=0.5;entryDx=0;entryDy=0;" edge="1" parent="1" source="_2_auk2qE2fRlxZCheI2-11" target="_2_auk2qE2fRlxZCheI2-13">
          <mxGeometry width="50" height="50" relative="1" as="geometry">
            <mxPoint x="484" y="135" as="sourcePoint" />
            <mxPoint x="534" y="75" as="targetPoint" />
          </mxGeometry>
        </mxCell>
        <mxCell id="_2_auk2qE2fRlxZCheI2-25" value="" style="endArrow=classic;html=1;rounded=0;entryX=0;entryY=0.5;entryDx=0;entryDy=0;exitX=1;exitY=0.5;exitDx=0;exitDy=0;" edge="1" parent="1" source="_2_auk2qE2fRlxZCheI2-13" target="_2_auk2qE2fRlxZCheI2-14">
          <mxGeometry width="50" height="50" relative="1" as="geometry">
            <mxPoint x="620" y="160" as="sourcePoint" />
            <mxPoint x="544" y="85" as="targetPoint" />
          </mxGeometry>
        </mxCell>
        <mxCell id="_2_auk2qE2fRlxZCheI2-26" value="" style="endArrow=classic;html=1;rounded=0;entryX=0;entryY=0.5;entryDx=0;entryDy=0;exitX=1;exitY=0.5;exitDx=0;exitDy=0;" edge="1" parent="1" source="_2_auk2qE2fRlxZCheI2-13" target="_2_auk2qE2fRlxZCheI2-15">
          <mxGeometry width="50" height="50" relative="1" as="geometry">
            <mxPoint x="480" y="120" as="sourcePoint" />
            <mxPoint x="554" y="95" as="targetPoint" />
          </mxGeometry>
        </mxCell>
        <mxCell id="_2_auk2qE2fRlxZCheI2-27" value="" style="endArrow=classic;html=1;rounded=0;exitX=1;exitY=0.5;exitDx=0;exitDy=0;entryX=0;entryY=0.5;entryDx=0;entryDy=0;" edge="1" parent="1" source="_2_auk2qE2fRlxZCheI2-11" target="_2_auk2qE2fRlxZCheI2-18">
          <mxGeometry width="50" height="50" relative="1" as="geometry">
            <mxPoint x="514" y="165" as="sourcePoint" />
            <mxPoint x="564" y="105" as="targetPoint" />
          </mxGeometry>
        </mxCell>
        <mxCell id="_2_auk2qE2fRlxZCheI2-28" value="" style="endArrow=classic;html=1;rounded=0;exitX=0;exitY=0.3333333333333333;exitDx=0;exitDy=0;exitPerimeter=0;entryX=1;entryY=0.5;entryDx=0;entryDy=0;" edge="1" parent="1" source="_2_auk2qE2fRlxZCheI2-17" target="_2_auk2qE2fRlxZCheI2-19">
          <mxGeometry width="50" height="50" relative="1" as="geometry">
            <mxPoint x="390" y="300" as="sourcePoint" />
            <mxPoint x="440" y="250" as="targetPoint" />
          </mxGeometry>
        </mxCell>
        <mxCell id="_2_auk2qE2fRlxZCheI2-29" value="" style="endArrow=classic;html=1;rounded=0;entryX=1.003;entryY=0.36;entryDx=0;entryDy=0;entryPerimeter=0;exitX=0;exitY=0.3333333333333333;exitDx=0;exitDy=0;exitPerimeter=0;" edge="1" parent="1" source="_2_auk2qE2fRlxZCheI2-17" target="_2_auk2qE2fRlxZCheI2-21">
          <mxGeometry width="50" height="50" relative="1" as="geometry">
            <mxPoint x="760" y="360" as="sourcePoint" />
            <mxPoint x="574" y="115" as="targetPoint" />
          </mxGeometry>
        </mxCell>
        <mxCell id="_2_auk2qE2fRlxZCheI2-30" value="" style="endArrow=classic;html=1;rounded=0;entryX=1;entryY=0.5;entryDx=0;entryDy=0;" edge="1" parent="1" target="_2_auk2qE2fRlxZCheI2-22">
          <mxGeometry width="50" height="50" relative="1" as="geometry">
            <mxPoint x="770" y="360" as="sourcePoint" />
            <mxPoint x="440" y="350" as="targetPoint" />
          </mxGeometry>
        </mxCell>
        <mxCell id="_2_auk2qE2fRlxZCheI2-39" value="문의 글 삭제" style="ellipse;whiteSpace=wrap;html=1;" vertex="1" parent="1">
          <mxGeometry x="520" y="345" width="120" height="50" as="geometry" />
        </mxCell>
        <mxCell id="_2_auk2qE2fRlxZCheI2-41" value="" style="endArrow=classic;html=1;rounded=0;entryX=1;entryY=0.5;entryDx=0;entryDy=0;" edge="1" parent="1" target="_2_auk2qE2fRlxZCheI2-39">
          <mxGeometry width="50" height="50" relative="1" as="geometry">
            <mxPoint x="770" y="360" as="sourcePoint" />
            <mxPoint x="440" y="250" as="targetPoint" />
          </mxGeometry>
        </mxCell>
      </root>
    </mxGraphModel>
  </diagram>
</mxfile>
